<svg width="225" height="53" viewBox="0 0 225 53" fill="none" xmlns="http://www.w3.org/2000/svg">
<path fill-rule="evenodd" clip-rule="evenodd" d="M42.6654 25.8287C44.5551 32.8096 42.7595 40.58 37.2789 46.0607C31.7982 51.5413 24.0278 53.3369 17.0469 51.4472C23.2532 50.4538 29.215 47.5651 33.9991 42.7809C38.7833 37.9968 41.672 32.035 42.6654 25.8287Z" fill="#78BE97"/>
<path fill-rule="evenodd" clip-rule="evenodd" d="M36.3667 16.0138C38.5157 23.9529 36.4738 32.7898 30.2409 39.0227C24.0079 45.2557 15.171 47.2976 7.23193 45.1486C14.2901 44.0189 21.0702 40.7336 26.511 35.2928C31.9518 29.852 35.237 23.072 36.3667 16.0138Z" fill="#FAB266"/>
<path fill-rule="evenodd" clip-rule="evenodd" d="M15.807 36.1601C13.6579 28.2211 15.6999 19.3842 21.9328 13.1512C28.1657 6.91827 37.0026 4.87632 44.9417 7.02537C37.8836 8.15505 31.1035 11.4403 25.6627 16.8811C20.2219 22.3219 16.9366 29.102 15.807 36.1601Z" fill="#F1645D"/>
<path fill-rule="evenodd" clip-rule="evenodd" d="M14.8949 6.11326C20.3756 0.632568 28.1459 -1.16294 35.1269 0.726737C28.9205 1.72008 22.9587 4.60883 18.1746 9.39298C13.3904 14.1771 10.5017 20.1389 9.50835 26.3452C7.61868 19.3643 9.41418 11.594 14.8949 6.11326Z" fill="#398689"/>
<path d="M70.6622 20.9627C70.5338 21.1681 70.3968 21.3222 70.2513 21.4249C70.1144 21.5276 69.9346 21.579 69.7121 21.579C69.5152 21.579 69.3012 21.5191 69.0701 21.3992C68.8475 21.2708 68.5907 21.1296 68.2997 20.9755C68.0172 20.8214 67.6919 20.6845 67.3239 20.5646C66.9558 20.4362 66.5364 20.372 66.0656 20.372C65.2524 20.372 64.6447 20.5475 64.2423 20.8985C63.8486 21.2409 63.6517 21.7074 63.6517 22.298C63.6517 22.6746 63.7716 22.9871 64.0112 23.2353C64.2509 23.4835 64.5633 23.6975 64.9485 23.8773C65.3423 24.057 65.7874 24.224 66.2839 24.378C66.7889 24.5235 67.3025 24.6905 67.8246 24.8788C68.3468 25.0585 68.8561 25.2725 69.3525 25.5208C69.8576 25.769 70.3027 26.0857 70.6879 26.4709C71.0816 26.8561 71.3983 27.3269 71.638 27.8833C71.8777 28.4311 71.9975 29.0945 71.9975 29.8734C71.9975 30.7379 71.8477 31.5468 71.5481 32.3001C71.2485 33.0534 70.812 33.7125 70.2385 34.2774C69.6735 34.8338 68.9716 35.2746 68.1328 35.5999C67.3025 35.9166 66.3566 36.075 65.2952 36.075C64.7131 36.075 64.1182 36.0151 63.5105 35.8952C62.9113 35.7754 62.3292 35.6085 61.7643 35.3945C61.1993 35.1719 60.6686 34.9108 60.1722 34.6112C59.6757 34.3117 59.2434 33.9778 58.8754 33.6098L60.1593 31.5811C60.2535 31.427 60.3862 31.3029 60.5574 31.2087C60.7286 31.1146 60.9126 31.0675 61.1095 31.0675C61.3663 31.0675 61.6231 31.1488 61.8798 31.3115C62.1452 31.4741 62.4405 31.6538 62.7658 31.8507C63.0996 32.0476 63.4805 32.2274 63.9085 32.39C64.3365 32.5526 64.8415 32.6339 65.4236 32.6339C66.2111 32.6339 66.8231 32.4627 67.2597 32.1204C67.6962 31.7694 67.9145 31.2173 67.9145 30.464C67.9145 30.0275 67.7947 29.6723 67.555 29.3983C67.3153 29.1244 66.9986 28.8976 66.6048 28.7178C66.2197 28.5381 65.7788 28.3797 65.2824 28.2428C64.7859 28.1058 64.2766 27.956 63.7544 27.7934C63.2323 27.6222 62.723 27.4168 62.2265 27.1771C61.7301 26.9288 61.2849 26.6079 60.8912 26.2141C60.506 25.8118 60.1936 25.3153 59.9539 24.7247C59.7142 24.1255 59.5944 23.3894 59.5944 22.5163C59.5944 21.8144 59.7356 21.1296 60.0181 20.4619C60.3006 19.7943 60.7157 19.1994 61.2635 18.6772C61.8114 18.1551 62.4833 17.7399 63.2794 17.4318C64.0754 17.1151 64.9871 16.9567 66.0142 16.9567C66.5877 16.9567 67.1441 17.0038 67.6834 17.0979C68.2312 17.1835 68.7491 17.3162 69.237 17.496C69.7249 17.6672 70.1786 17.8769 70.598 18.1251C71.026 18.3648 71.4069 18.6387 71.7407 18.9468L70.6622 20.9627Z" fill="white"/>
<path d="M87.2981 32.4413C87.8801 32.4413 88.398 32.3472 88.8517 32.1589C89.3139 31.962 89.7034 31.6838 90.0201 31.3243C90.3368 30.9648 90.5765 30.5282 90.7391 30.0146C90.9103 29.4925 90.9959 28.9019 90.9959 28.2428V17.1621H95.3357V28.2428C95.3357 29.3898 95.1474 30.4426 94.7708 31.4013C94.4027 32.36 93.872 33.186 93.1787 33.8794C92.4853 34.5727 91.6422 35.112 90.6492 35.4972C89.6563 35.8824 88.5393 36.075 87.2981 36.075C86.0484 36.075 84.927 35.8824 83.9341 35.4972C82.9412 35.112 82.098 34.5727 81.4047 33.8794C80.7113 33.186 80.1806 32.36 79.8126 31.4013C79.4445 30.4426 79.2604 29.3898 79.2604 28.2428V17.1621H83.6003V28.2299C83.6003 28.889 83.6816 29.4797 83.8442 30.0018C84.0154 30.5154 84.2594 30.9562 84.5761 31.3243C84.8928 31.6838 85.278 31.962 85.7316 32.1589C86.1939 32.3472 86.716 32.4413 87.2981 32.4413Z" fill="white"/>
<path d="M103.513 35.8695V17.1621H110.395C111.687 17.1621 112.787 17.282 113.695 17.5216C114.602 17.7613 115.342 18.0994 115.916 18.536C116.489 18.9725 116.904 19.5032 117.161 20.1281C117.427 20.753 117.559 21.4506 117.559 22.221C117.559 22.6404 117.499 23.047 117.38 23.4407C117.26 23.8259 117.071 24.1897 116.815 24.5321C116.558 24.8745 116.228 25.1869 115.826 25.4694C115.424 25.7433 114.94 25.983 114.375 26.1884C115.608 26.488 116.519 26.9759 117.11 27.6521C117.701 28.3198 117.996 29.1801 117.996 30.2329C117.996 31.029 117.842 31.7694 117.534 32.4542C117.225 33.139 116.772 33.7382 116.173 34.2517C115.582 34.7568 114.85 35.1548 113.977 35.4458C113.104 35.7283 112.107 35.8695 110.985 35.8695H103.513ZM107.852 27.9346V32.5954H110.908C111.482 32.5954 111.948 32.5227 112.308 32.3771C112.676 32.2316 112.963 32.0433 113.168 31.8122C113.374 31.5811 113.515 31.32 113.592 31.029C113.669 30.7379 113.707 30.4426 113.707 30.143C113.707 29.8007 113.66 29.4925 113.566 29.2186C113.481 28.9447 113.326 28.7136 113.104 28.5252C112.89 28.3369 112.603 28.1914 112.244 28.0887C111.884 27.986 111.43 27.9346 110.883 27.9346H107.852ZM107.852 25.0329H110.112C110.592 25.0329 111.024 24.9986 111.409 24.9301C111.794 24.8617 112.12 24.7418 112.385 24.5706C112.659 24.3994 112.864 24.164 113.001 23.8644C113.147 23.5648 113.219 23.1882 113.219 22.7345C113.219 22.2894 113.164 21.9214 113.053 21.6303C112.941 21.3307 112.77 21.0911 112.539 20.9113C112.308 20.7316 112.013 20.6032 111.653 20.5261C111.302 20.4491 110.883 20.4106 110.395 20.4106H107.852V25.0329Z" fill="white"/>
<path d="M136.153 20.9627C136.025 21.1681 135.888 21.3222 135.743 21.4249C135.606 21.5276 135.426 21.579 135.203 21.579C135.006 21.579 134.792 21.5191 134.561 21.3992C134.339 21.2708 134.082 21.1296 133.791 20.9755C133.508 20.8214 133.183 20.6845 132.815 20.5646C132.447 20.4362 132.028 20.372 131.557 20.372C130.744 20.372 130.136 20.5475 129.734 20.8985C129.34 21.2409 129.143 21.7074 129.143 22.298C129.143 22.6746 129.263 22.9871 129.502 23.2353C129.742 23.4835 130.055 23.6975 130.44 23.8773C130.834 24.057 131.279 24.224 131.775 24.378C132.28 24.5235 132.794 24.6905 133.316 24.8788C133.838 25.0585 134.347 25.2725 134.844 25.5208C135.349 25.769 135.794 26.0857 136.179 26.4709C136.573 26.8561 136.89 27.3269 137.129 27.8833C137.369 28.4311 137.489 29.0945 137.489 29.8734C137.489 30.7379 137.339 31.5468 137.039 32.3001C136.74 33.0534 136.303 33.7125 135.73 34.2774C135.165 34.8338 134.463 35.2746 133.624 35.5999C132.794 35.9166 131.848 36.075 130.786 36.075C130.204 36.075 129.609 36.0151 129.002 35.8952C128.403 35.7754 127.82 35.6085 127.256 35.3945C126.691 35.1719 126.16 34.9108 125.663 34.6112C125.167 34.3117 124.735 33.9778 124.367 33.6098L125.651 31.5811C125.745 31.427 125.877 31.3029 126.049 31.2087C126.22 31.1146 126.404 31.0675 126.601 31.0675C126.858 31.0675 127.114 31.1488 127.371 31.3115C127.636 31.4741 127.932 31.6538 128.257 31.8507C128.591 32.0476 128.972 32.2274 129.4 32.39C129.828 32.5526 130.333 32.6339 130.915 32.6339C131.702 32.6339 132.314 32.4627 132.751 32.1204C133.187 31.7694 133.406 31.2173 133.406 30.464C133.406 30.0275 133.286 29.6723 133.046 29.3983C132.807 29.1244 132.49 28.8976 132.096 28.7178C131.711 28.5381 131.27 28.3797 130.774 28.2428C130.277 28.1058 129.768 27.956 129.246 27.7934C128.724 27.6222 128.214 27.4168 127.718 27.1771C127.221 26.9288 126.776 26.6079 126.382 26.2141C125.997 25.8118 125.685 25.3153 125.445 24.7247C125.205 24.1255 125.086 23.3894 125.086 22.5163C125.086 21.8144 125.227 21.1296 125.509 20.4619C125.792 19.7943 126.207 19.1994 126.755 18.6772C127.303 18.1551 127.975 17.7399 128.771 17.4318C129.567 17.1151 130.478 16.9567 131.505 16.9567C132.079 16.9567 132.635 17.0038 133.175 17.0979C133.722 17.1835 134.24 17.3162 134.728 17.496C135.216 17.6672 135.67 17.8769 136.089 18.1251C136.517 18.3648 136.898 18.6387 137.232 18.9468L136.153 20.9627Z" fill="white"/>
<path d="M149.348 29.6166V35.8695H145.008V17.1621H151.608C152.926 17.1621 154.056 17.3205 154.998 17.6372C155.948 17.9454 156.727 18.3733 157.335 18.9212C157.951 19.469 158.405 20.1153 158.696 20.86C158.987 21.6047 159.132 22.4093 159.132 23.2738C159.132 24.2068 158.982 25.0628 158.683 25.8418C158.383 26.6207 157.925 27.2884 157.309 27.8447C156.693 28.4011 155.909 28.8377 154.959 29.1544C154.018 29.4625 152.901 29.6166 151.608 29.6166H149.348ZM149.348 26.3425H151.608C152.738 26.3425 153.551 26.0729 154.048 25.5336C154.544 24.9943 154.792 24.2411 154.792 23.2738C154.792 22.8458 154.728 22.4564 154.6 22.1054C154.471 21.7545 154.274 21.4549 154.009 21.2066C153.752 20.9498 153.423 20.753 153.02 20.616C152.627 20.479 152.156 20.4106 151.608 20.4106H149.348V26.3425Z" fill="white"/>
<path d="M181.976 35.8695H178.612C178.235 35.8695 177.923 35.7839 177.675 35.6127C177.435 35.433 177.268 35.2062 177.174 34.9322L176.07 31.671H168.956L167.852 34.9322C167.767 35.1719 167.6 35.3902 167.351 35.5871C167.103 35.7754 166.799 35.8695 166.44 35.8695H163.05L170.292 17.1621H174.734L181.976 35.8695ZM169.958 28.7178H175.068L173.348 23.5948C173.236 23.2695 173.104 22.8886 172.95 22.4521C172.804 22.007 172.658 21.5276 172.513 21.014C172.376 21.5362 172.235 22.0198 172.089 22.4649C171.944 22.91 171.807 23.2952 171.678 23.6205L169.958 28.7178Z" fill="white"/>
<path d="M200.654 31.029C200.757 31.029 200.86 31.0504 200.962 31.0932C201.065 31.1274 201.164 31.1916 201.258 31.2858L202.978 33.0962C202.225 34.0805 201.279 34.8252 200.141 35.3303C199.011 35.8267 197.671 36.075 196.122 36.075C194.701 36.075 193.425 35.8353 192.296 35.356C191.174 34.868 190.22 34.2004 189.432 33.353C188.653 32.497 188.054 31.4869 187.635 30.3228C187.215 29.1501 187.006 27.879 187.006 26.5094C187.006 25.1142 187.245 23.8345 187.725 22.6704C188.204 21.4977 188.872 20.4876 189.728 19.6402C190.592 18.7928 191.624 18.1337 192.822 17.6629C194.02 17.1921 195.343 16.9567 196.789 16.9567C197.491 16.9567 198.15 17.0209 198.767 17.1493C199.392 17.2691 199.974 17.4403 200.513 17.6629C201.052 17.8769 201.549 18.1379 202.002 18.4461C202.456 18.7457 202.858 19.0795 203.209 19.4476L201.746 21.4121C201.651 21.5319 201.54 21.6432 201.412 21.7459C201.283 21.8401 201.104 21.8871 200.872 21.8871C200.718 21.8871 200.573 21.8529 200.436 21.7844C200.299 21.7159 200.153 21.6346 199.999 21.5405C199.845 21.4377 199.674 21.3307 199.486 21.2195C199.306 21.0996 199.088 20.9926 198.831 20.8985C198.583 20.7958 198.287 20.7102 197.945 20.6417C197.611 20.5732 197.217 20.539 196.764 20.539C195.976 20.539 195.257 20.6802 194.607 20.9627C193.956 21.2366 193.396 21.6346 192.925 22.1568C192.462 22.6704 192.099 23.2952 191.833 24.0314C191.577 24.7675 191.448 25.5935 191.448 26.5094C191.448 27.4681 191.577 28.3198 191.833 29.0645C192.099 29.8092 192.454 30.4384 192.899 30.9519C193.353 31.457 193.879 31.8422 194.478 32.1075C195.078 32.3729 195.719 32.5055 196.404 32.5055C196.798 32.5055 197.158 32.4884 197.483 32.4542C197.808 32.4114 198.108 32.3429 198.382 32.2487C198.664 32.1546 198.929 32.0348 199.178 31.8892C199.434 31.7352 199.691 31.5468 199.948 31.3243C200.051 31.2387 200.162 31.1702 200.282 31.1189C200.402 31.0589 200.526 31.029 200.654 31.029Z" fill="white"/>
<path d="M222.368 17.1621V20.5004H214.69V24.8659H220.57V28.0759H214.69V32.5312H222.368V35.8695H210.324V17.1621H222.368Z" fill="white"/>
</svg>
