<svg width="62" height="22" viewBox="0 0 62 22" fill="none" xmlns="http://www.w3.org/2000/svg">
<g clip-path="url(#clip0)">
<path d="M3.39852 6.00421L0.551111 10.9084C-0.183704 12.1917 -0.183704 13.7959 0.551111 15.0792L3.39852 19.9834C4.13333 21.2667 5.51111 22.0459 7.02667 22.0459H12.6756C14.1911 22.0459 15.5689 21.2667 16.3037 19.9375L19.1052 15.0334C19.84 13.75 19.84 12.1459 19.1052 10.8625L16.2578 5.95837C15.523 4.67504 14.1452 3.89587 12.6296 3.89587H6.98074C5.51111 3.89587 4.13333 4.72087 3.39852 6.00421Z" fill="#0B476D"/>
<path d="M6.42961 8.75421C6.42961 8.75421 5.14368 10.9084 5.23553 11.6875C5.41924 13.1542 6.42961 17.325 6.42961 17.325H6.75109L7.62368 13.5667C7.57775 13.5667 6.75109 11.9167 6.42961 8.75421Z" fill="#FAB266"/>
<path d="M13.5481 8.79999C13.5481 8.79999 14.834 10.9541 14.7422 11.7333C14.5584 13.1999 13.5481 17.3708 13.5481 17.3708H13.2266L12.354 13.6125C12.3999 13.6125 13.2725 11.9625 13.5481 8.79999Z" fill="#F1645D"/>
<path d="M10.0118 -0.0916138C17.2222 8.2042 11.2978 15.8125 11.2978 15.8125H10.0118V-0.0916138Z" fill="#398689"/>
<path d="M10.0118 -0.137512C2.80148 8.15834 8.72592 15.7667 8.72592 15.7667H10.0118V-0.137512Z" fill="#78BE97"/>
<path d="M23.3763 18.15V10.1292H28.3363V11.275H24.5704V13.475H27.0045V14.6209H24.5704V17.05H28.6119V18.1959H23.3763V18.15Z" fill="white"/>
<path d="M37.0622 18.15V14.6209C37.0622 13.7042 36.6948 13.2459 36.0059 13.2459C35.6844 13.2459 35.4088 13.3834 35.1792 13.6125C34.9496 13.8417 34.8577 14.2084 34.8577 14.6667V18.1042H33.6637V14.575C33.6637 13.6584 33.2962 13.2 32.6074 13.2C32.2859 13.2 32.0103 13.3375 31.7807 13.5667C31.5511 13.7959 31.4592 14.1625 31.4592 14.6209V18.0584H30.2651V12.2834H31.4592V12.8334C31.7807 12.375 32.2859 12.1459 32.9288 12.1459C33.6637 12.1459 34.1688 12.4209 34.4903 12.9709C34.8577 12.4209 35.4088 12.1459 36.2355 12.1459C36.8785 12.1459 37.3837 12.3292 37.7511 12.6959C38.1185 13.0625 38.3481 13.6125 38.3481 14.3459V18.1042H37.0622V18.15Z" fill="white"/>
<path d="M42.5733 18.2875C42.0222 18.2875 41.5629 18.1042 41.1955 17.6917V18.15H40.0015V10.4042L41.1955 9.85419V12.6959C41.5629 12.2834 42.0222 12.1 42.5733 12.1C43.3081 12.1 43.9052 12.375 44.3185 12.925C44.7778 13.475 45.0074 14.2084 45.0074 15.1709C45.0074 16.1334 44.7778 16.9125 44.3644 17.4625C43.9052 18.0125 43.3081 18.2875 42.5733 18.2875ZM42.4355 17.1417C42.8948 17.1417 43.2163 16.9584 43.4459 16.6375C43.6755 16.2709 43.8133 15.8125 43.8133 15.2167C43.8133 14.575 43.6755 14.1167 43.4459 13.7959C43.2163 13.475 42.8489 13.2917 42.4355 13.2917C42.16 13.2917 41.9304 13.3375 41.7007 13.475C41.4711 13.6125 41.3333 13.75 41.1955 13.9334V16.5C41.4711 16.9125 41.8844 17.1417 42.4355 17.1417Z" fill="white"/>
<path d="M49.8296 18.15V17.6459C49.4163 18.0584 48.8652 18.2875 48.2222 18.2875C47.6252 18.2875 47.12 18.1042 46.7067 17.7834C46.3392 17.4625 46.1096 16.9584 46.1096 16.3167C46.1096 15.675 46.3392 15.2167 46.7526 14.85C47.1659 14.4834 47.717 14.3459 48.36 14.3459C48.9111 14.3459 49.4163 14.4375 49.7837 14.7125V14.3917C49.7837 13.9792 49.6918 13.6584 49.5081 13.475C49.3244 13.2917 49.0029 13.2 48.5437 13.2C47.9007 13.2 47.3496 13.3834 46.8444 13.75L46.477 12.7875C47.0741 12.375 47.8089 12.1917 48.6815 12.1917C48.957 12.1917 49.2326 12.2375 49.4622 12.2834C49.6918 12.3292 49.9215 12.4209 50.1511 12.5584C50.3807 12.6959 50.5644 12.925 50.7022 13.2459C50.84 13.5667 50.8859 13.9334 50.8859 14.3917V18.1959H49.8296V18.15ZM48.4518 17.2334C49.003 17.2334 49.4622 17.0042 49.8296 16.5917V15.675C49.4622 15.4917 49.0489 15.4 48.5896 15.4C48.2222 15.4 47.9007 15.4917 47.6711 15.6292C47.4415 15.7667 47.3037 15.9959 47.3037 16.3167C47.3037 16.5917 47.3955 16.8209 47.6252 16.9584C47.8089 17.1417 48.0844 17.2334 48.4518 17.2334Z" fill="white"/>
<path d="M52.677 18.15V12.2834H53.8711V13.0167C54.1466 12.4667 54.56 12.1459 55.2029 12.1459C55.5703 12.1459 55.8918 12.2834 56.1674 12.5125L55.9837 13.6125C55.7081 13.4292 55.3866 13.3375 55.0652 13.3375C54.7437 13.3375 54.4681 13.475 54.2385 13.7042C54.0089 13.9334 53.8711 14.3459 53.8711 14.8959V18.1959H52.677V18.15Z" fill="white"/>
<path d="M62.2297 18.1501H60.9438L59.1986 14.8043L58.4178 15.5376V18.1501H57.2238V10.4501L58.4178 9.90009V14.1168L60.163 12.2834H61.6326L60.0252 13.9334L62.2297 18.1501Z" fill="white"/>
<path d="M15.7526 20.6249C15.7067 20.5791 15.6607 20.4874 15.6148 20.4416C15.4311 20.3041 15.2474 20.2583 15.0178 20.3499C14.9259 20.0749 14.6963 19.7999 14.3748 19.7999C14.1452 19.7999 13.9615 19.8916 13.8237 20.0291C13.5941 19.7083 13.1807 19.4333 12.7215 19.4333C12.6756 19.4333 12.6296 19.4333 12.6296 19.4333C12.5378 19.0208 12.2622 18.6999 11.9407 18.4708C11.2978 17.7833 11.2978 15.7666 11.2978 15.7666H9.96592H8.63407C8.63407 15.7666 8.58815 17.7833 7.94518 18.4708C7.66963 18.6541 7.48592 18.9291 7.39407 19.2041C7.21037 19.1124 7.02666 19.0666 6.79704 19.0208C6.15407 18.9749 5.55704 19.3874 5.32741 19.9833C5.23555 19.9374 5.1437 19.9374 5.05185 19.9374C4.77629 19.9374 4.50074 20.0749 4.36296 20.3041C4.31704 20.2583 4.22518 20.2583 4.13333 20.2583C3.94963 20.2583 3.76592 20.3499 3.67407 20.4874C3.94963 20.8083 4.22518 21.0374 4.54666 21.2666C4.73037 21.4041 4.91407 21.4958 5.09778 21.5874C5.28148 21.6791 5.46518 21.7249 5.60296 21.8166C5.64889 21.8166 5.64889 21.8166 5.69481 21.8624C5.83259 21.9083 6.01629 21.9541 6.2 21.9541C6.24592 21.9541 6.29185 21.9541 6.29185 21.9541C6.47555 21.9999 6.70518 21.9999 6.88889 21.9999H12.5378C12.7215 21.9999 12.9052 21.9999 13.1348 21.9541H13.1807C13.7319 21.8624 14.283 21.6791 14.7422 21.3583C15.2015 21.1749 15.477 20.9458 15.7526 20.6249Z" fill="#9BDCD9"/>
<path d="M7.02658 22.0458H12.6755C13.1347 22.0458 13.594 21.9541 14.0073 21.8166C13.8236 21.45 12.997 20.9 12.6755 20.7625C11.6651 20.3958 12.0784 19.25 11.0681 19.25C10.4251 19.25 10.1495 17.3708 10.1495 17.3708H9.82806C9.82806 17.3708 9.59843 19.2041 8.95547 19.1583C7.66954 19.1125 8.49621 20.4416 6.98066 20.8541C6.01621 21.1291 5.69473 21.4958 5.6488 21.7708C6.06214 21.9083 6.5214 22.0458 7.02658 22.0458Z" fill="#D7F1F0"/>
<path d="M10.0118 8.2041C10.0118 8.2041 8.40441 10.0374 8.58811 10.9083C8.86367 12.3749 9.87404 17.3249 9.87404 17.3249H10.0118V8.2041Z" fill="#FAB266"/>
<path d="M10.0118 8.25C10.0118 8.25 11.6192 10.0833 11.4355 10.9542C11.16 12.4208 10.1496 17.3708 10.1496 17.3708H10.0118V8.25Z" fill="#F1645D"/>
</g>
<defs>
<clipPath id="clip0">
<rect width="62" height="22" fill="white"/>
</clipPath>
</defs>
</svg>
