<svg width="345" height="80" viewBox="0 0 345 80" fill="none" xmlns="http://www.w3.org/2000/svg">
<path fill-rule="evenodd" clip-rule="evenodd" d="M65.4204 39.604C68.3179 50.3081 65.5648 62.2226 57.161 70.6264C48.7573 79.0301 36.8427 81.7832 26.1387 78.8857C35.655 77.3626 44.7965 72.9332 52.1322 65.5975C59.4678 58.2618 63.8973 49.1204 65.4204 39.604Z" fill="#78BE97"/>
<path fill-rule="evenodd" clip-rule="evenodd" d="M55.7624 24.5544C59.0576 36.7277 55.9266 50.2776 46.3695 59.8348C36.8123 69.392 23.2624 72.523 11.0891 69.2278C21.9116 67.4956 32.3078 62.4582 40.6503 54.1157C48.9929 45.7731 54.0302 35.377 55.7624 24.5544Z" fill="#FAB266"/>
<path fill-rule="evenodd" clip-rule="evenodd" d="M24.2375 55.4456C20.9423 43.2723 24.0733 29.7224 33.6305 20.1653C43.1876 10.6081 56.7375 7.47708 68.9108 10.7723C58.0883 12.5045 47.6922 17.5418 39.3496 25.8844C31.007 34.2269 25.9697 44.6231 24.2375 55.4456Z" fill="#F1645D"/>
<path fill-rule="evenodd" clip-rule="evenodd" d="M22.839 9.37367C31.2427 0.969937 43.1573 -1.78317 53.8614 1.11433C44.345 2.63746 35.2036 7.06687 27.8679 14.4026C20.5322 21.7383 16.1028 30.8797 14.5797 40.396C11.6822 29.692 14.4353 17.7774 22.839 9.37367Z" fill="#398689"/>
<path d="M108.349 32.1427C108.152 32.4577 107.942 32.694 107.719 32.8515C107.509 33.009 107.233 33.0877 106.892 33.0877C106.59 33.0877 106.262 32.9959 105.908 32.8121C105.566 32.6152 105.173 32.3987 104.726 32.1624C104.293 31.9262 103.794 31.7162 103.23 31.5324C102.666 31.3356 102.023 31.2371 101.301 31.2371C100.054 31.2371 99.1219 31.5062 98.505 32.0443C97.9013 32.5693 97.5994 33.2846 97.5994 34.1902C97.5994 34.7677 97.7831 35.2468 98.1506 35.6274C98.5181 36.0081 98.9972 36.3362 99.5878 36.6118C100.192 36.8874 100.874 37.1434 101.635 37.3796C102.41 37.6027 103.197 37.8587 103.998 38.1474C104.798 38.4231 105.579 38.7512 106.341 39.1318C107.115 39.5124 107.798 39.9981 108.388 40.5887C108.992 41.1793 109.478 41.9012 109.845 42.7543C110.213 43.5943 110.396 44.6115 110.396 45.8059C110.396 47.1315 110.167 48.3718 109.707 49.5268C109.248 50.6818 108.578 51.6924 107.699 52.5587C106.833 53.4118 105.757 54.0877 104.47 54.5865C103.197 55.0721 101.747 55.3149 100.119 55.3149C99.2269 55.3149 98.3147 55.2231 97.3828 55.0393C96.4641 54.8556 95.5716 54.5996 94.7053 54.2715C93.8391 53.9302 93.0253 53.5299 92.2641 53.0706C91.5028 52.6112 90.84 52.0993 90.2756 51.5349L92.2444 48.4243C92.3888 48.1881 92.5922 47.9977 92.8547 47.8534C93.1172 47.709 93.3994 47.6368 93.7013 47.6368C94.095 47.6368 94.4888 47.7615 94.8825 48.0109C95.2894 48.2602 95.7422 48.5359 96.2409 48.8377C96.7528 49.1396 97.3369 49.4152 97.9931 49.6646C98.6494 49.914 99.4238 50.0387 100.316 50.0387C101.524 50.0387 102.462 49.7762 103.132 49.2512C103.801 48.7131 104.136 47.8665 104.136 46.7115C104.136 46.0421 103.952 45.4974 103.584 45.0774C103.217 44.6574 102.731 44.3096 102.128 44.034C101.537 43.7584 100.861 43.5156 100.1 43.3056C99.3384 43.0956 98.5575 42.8659 97.7569 42.6165C96.9563 42.354 96.1753 42.039 95.4141 41.6715C94.6528 41.2909 93.9703 40.7987 93.3666 40.1949C92.7759 39.5781 92.2969 38.8168 91.9294 37.9112C91.5619 36.9924 91.3781 35.8637 91.3781 34.5249C91.3781 33.4487 91.5947 32.3987 92.0278 31.3749C92.4609 30.3512 93.0975 29.439 93.9375 28.6384C94.7775 27.8377 95.8078 27.2012 97.0284 26.7287C98.2491 26.2431 99.6469 26.0002 101.222 26.0002C102.101 26.0002 102.954 26.0724 103.781 26.2168C104.621 26.3481 105.415 26.5515 106.163 26.8271C106.912 27.0896 107.607 27.4112 108.25 27.7918C108.907 28.1593 109.491 28.5793 110.003 29.0518L108.349 32.1427Z" fill="black"/>
<path d="M133.857 49.7434C134.75 49.7434 135.544 49.599 136.239 49.3102C136.948 49.0084 137.545 48.5818 138.031 48.0306C138.517 47.4793 138.884 46.8099 139.133 46.0224C139.396 45.2218 139.527 44.3162 139.527 43.3056V26.3152H146.182V43.3056C146.182 45.0643 145.893 46.6787 145.315 48.1487C144.751 49.6187 143.937 50.8852 142.874 51.9484C141.811 53.0115 140.518 53.8384 138.996 54.429C137.473 55.0196 135.76 55.3149 133.857 55.3149C131.941 55.3149 130.222 55.0196 128.699 54.429C127.177 53.8384 125.884 53.0115 124.821 51.9484C123.757 50.8852 122.944 49.6187 122.379 48.1487C121.815 46.6787 121.533 45.0643 121.533 43.3056V26.3152H128.187V43.2859C128.187 44.2965 128.312 45.2021 128.561 46.0027C128.824 46.7902 129.198 47.4662 129.683 48.0306C130.169 48.5818 130.76 49.0084 131.455 49.3102C132.164 49.599 132.965 49.7434 133.857 49.7434Z" fill="black"/>
<path d="M158.72 54.9999V26.3152H169.272C171.254 26.3152 172.94 26.499 174.332 26.8665C175.723 27.234 176.858 27.7524 177.738 28.4218C178.617 29.0912 179.254 29.9049 179.647 30.8631C180.054 31.8212 180.258 32.8909 180.258 34.0721C180.258 34.7152 180.166 35.3387 179.982 35.9424C179.798 36.5331 179.51 37.0909 179.116 37.6159C178.722 38.1409 178.217 38.6199 177.6 39.0531C176.983 39.4731 176.241 39.8406 175.375 40.1556C177.265 40.6149 178.663 41.3631 179.569 42.3999C180.474 43.4237 180.927 44.7427 180.927 46.3571C180.927 47.5777 180.691 48.7131 180.218 49.7631C179.746 50.8131 179.05 51.7318 178.131 52.5193C177.226 53.2937 176.104 53.904 174.765 54.3502C173.426 54.7834 171.897 54.9999 170.178 54.9999H158.72ZM165.374 42.8331V49.9796H170.06C170.939 49.9796 171.654 49.8681 172.205 49.6449C172.77 49.4218 173.21 49.1331 173.525 48.7787C173.84 48.4243 174.056 48.024 174.174 47.5777C174.292 47.1315 174.351 46.6787 174.351 46.2193C174.351 45.6943 174.279 45.2218 174.135 44.8018C174.004 44.3818 173.767 44.0274 173.426 43.7387C173.098 43.4499 172.658 43.2268 172.107 43.0693C171.556 42.9118 170.86 42.8331 170.02 42.8331H165.374ZM165.374 38.3837H168.839C169.574 38.3837 170.237 38.3312 170.827 38.2262C171.418 38.1212 171.917 37.9374 172.324 37.6749C172.744 37.4124 173.059 37.0515 173.269 36.5921C173.492 36.1327 173.603 35.5552 173.603 34.8596C173.603 34.1771 173.518 33.6127 173.347 33.1665C173.177 32.7071 172.914 32.3396 172.56 32.064C172.205 31.7884 171.753 31.5915 171.201 31.4734C170.663 31.3552 170.02 31.2962 169.272 31.2962H165.374V38.3837Z" fill="black"/>
<path d="M208.769 32.1427C208.572 32.4577 208.362 32.694 208.139 32.8515C207.929 33.009 207.653 33.0877 207.312 33.0877C207.01 33.0877 206.682 32.9959 206.327 32.8121C205.986 32.6152 205.592 32.3987 205.146 32.1624C204.713 31.9262 204.214 31.7162 203.65 31.5324C203.086 31.3356 202.442 31.2371 201.721 31.2371C200.474 31.2371 199.542 31.5062 198.925 32.0443C198.321 32.5693 198.019 33.2846 198.019 34.1902C198.019 34.7677 198.203 35.2468 198.571 35.6274C198.938 36.0081 199.417 36.3362 200.008 36.6118C200.611 36.8874 201.294 37.1434 202.055 37.3796C202.83 37.6027 203.617 37.8587 204.418 38.1474C205.218 38.4231 205.999 38.7512 206.761 39.1318C207.535 39.5124 208.217 39.9981 208.808 40.5887C209.412 41.1793 209.897 41.9012 210.265 42.7543C210.632 43.5943 210.816 44.6115 210.816 45.8059C210.816 47.1315 210.586 48.3718 210.127 49.5268C209.668 50.6818 208.998 51.6924 208.119 52.5587C207.253 53.4118 206.176 54.0877 204.89 54.5865C203.617 55.0721 202.167 55.3149 200.539 55.3149C199.647 55.3149 198.735 55.2231 197.803 55.0393C196.884 54.8556 195.991 54.5996 195.125 54.2715C194.259 53.9302 193.445 53.5299 192.684 53.0706C191.923 52.6112 191.26 52.0993 190.696 51.5349L192.664 48.4243C192.809 48.1881 193.012 47.9977 193.275 47.8534C193.537 47.709 193.819 47.6368 194.121 47.6368C194.515 47.6368 194.909 47.7615 195.302 48.0109C195.709 48.2602 196.162 48.5359 196.661 48.8377C197.173 49.1396 197.757 49.4152 198.413 49.6646C199.069 49.914 199.844 50.0387 200.736 50.0387C201.944 50.0387 202.882 49.7762 203.551 49.2512C204.221 48.7131 204.556 47.8665 204.556 46.7115C204.556 46.0421 204.372 45.4974 204.004 45.0774C203.637 44.6574 203.151 44.3096 202.547 44.034C201.957 43.7584 201.281 43.5156 200.52 43.3056C199.758 43.0956 198.977 42.8659 198.177 42.6165C197.376 42.354 196.595 42.039 195.834 41.6715C195.073 41.2909 194.39 40.7987 193.786 40.1949C193.196 39.5781 192.717 38.8168 192.349 37.9112C191.982 36.9924 191.798 35.8637 191.798 34.5249C191.798 33.4487 192.015 32.3987 192.448 31.3749C192.881 30.3512 193.517 29.439 194.357 28.6384C195.197 27.8377 196.228 27.2012 197.448 26.7287C198.669 26.2431 200.067 26.0002 201.642 26.0002C202.521 26.0002 203.374 26.0724 204.201 26.2168C205.041 26.3481 205.835 26.5515 206.583 26.8271C207.331 27.0896 208.027 27.4112 208.67 27.7918C209.326 28.1593 209.911 28.5793 210.422 29.0518L208.769 32.1427Z" fill="black"/>
<path d="M229.001 45.4121V54.9999H222.346V26.3152H232.466C234.487 26.3152 236.22 26.5581 237.663 27.0437C239.12 27.5162 240.315 28.1724 241.246 29.0124C242.191 29.8524 242.887 30.8434 243.333 31.9852C243.78 33.1271 244.003 34.3609 244.003 35.6865C244.003 37.1171 243.773 38.4296 243.314 39.624C242.854 40.8184 242.152 41.8421 241.207 42.6952C240.262 43.5484 239.061 44.2177 237.604 44.7034C236.16 45.1759 234.448 45.4121 232.466 45.4121H229.001ZM229.001 40.3918H232.466C234.198 40.3918 235.445 39.9784 236.206 39.1515C236.968 38.3246 237.348 37.1696 237.348 35.6865C237.348 35.0302 237.25 34.4331 237.053 33.8949C236.856 33.3568 236.554 32.8974 236.147 32.5168C235.754 32.1231 235.248 31.8212 234.631 31.6112C234.028 31.4012 233.306 31.2962 232.466 31.2962H229.001V40.3918Z" fill="black"/>
<path d="M279.03 54.9999H273.872C273.294 54.9999 272.815 54.8687 272.434 54.6062C272.067 54.3306 271.811 53.9827 271.667 53.5627L269.973 48.5621H259.067L257.373 53.5627C257.242 53.9302 256.986 54.2649 256.606 54.5668C256.225 54.8556 255.759 54.9999 255.208 54.9999H250.01L261.114 26.3152H267.926L279.03 54.9999ZM260.602 44.034H268.438L265.8 36.1787C265.629 35.6799 265.426 35.0959 265.189 34.4265C264.966 33.744 264.743 33.009 264.52 32.2215C264.31 33.0221 264.093 33.7637 263.87 34.4462C263.647 35.1287 263.437 35.7193 263.24 36.2181L260.602 44.034Z" fill="black"/>
<path d="M307.67 47.5777C307.827 47.5777 307.985 47.6106 308.142 47.6762C308.3 47.7287 308.451 47.8271 308.595 47.9715L311.233 50.7474C310.078 52.2568 308.628 53.3987 306.882 54.1731C305.15 54.9343 303.096 55.3149 300.72 55.3149C298.541 55.3149 296.586 54.9474 294.853 54.2124C293.134 53.4643 291.67 52.4406 290.463 51.1412C289.269 49.8287 288.35 48.2799 287.707 46.4949C287.064 44.6968 286.742 42.7477 286.742 40.6477C286.742 38.5084 287.11 36.5462 287.845 34.7612C288.58 32.9631 289.603 31.4143 290.916 30.1149C292.241 28.8156 293.823 27.8049 295.66 27.0831C297.498 26.3612 299.526 26.0002 301.744 26.0002C302.82 26.0002 303.831 26.0987 304.776 26.2956C305.734 26.4793 306.626 26.7418 307.453 27.0831C308.28 27.4112 309.041 27.8115 309.737 28.284C310.433 28.7434 311.05 29.2552 311.588 29.8196L309.343 32.8318C309.199 33.0156 309.028 33.1862 308.831 33.3437C308.635 33.4881 308.359 33.5602 308.005 33.5602C307.768 33.5602 307.545 33.5077 307.335 33.4027C307.125 33.2977 306.902 33.1731 306.666 33.0287C306.43 32.8712 306.167 32.7071 305.878 32.5365C305.603 32.3527 305.268 32.1887 304.874 32.0443C304.494 31.8868 304.041 31.7556 303.516 31.6506C303.004 31.5456 302.4 31.4931 301.705 31.4931C300.497 31.4931 299.395 31.7096 298.397 32.1427C297.4 32.5627 296.54 33.1731 295.818 33.9737C295.109 34.7612 294.551 35.7193 294.145 36.8481C293.751 37.9768 293.554 39.2434 293.554 40.6477C293.554 42.1177 293.751 43.4237 294.145 44.5656C294.551 45.7074 295.096 46.6721 295.779 47.4596C296.474 48.234 297.281 48.8246 298.2 49.2315C299.119 49.6384 300.103 49.8418 301.153 49.8418C301.757 49.8418 302.308 49.8156 302.807 49.7631C303.306 49.6974 303.765 49.5924 304.185 49.4481C304.618 49.3037 305.025 49.1199 305.406 48.8968C305.8 48.6606 306.193 48.3718 306.587 48.0306C306.745 47.8993 306.915 47.7943 307.099 47.7156C307.283 47.6237 307.473 47.5777 307.67 47.5777Z" fill="black"/>
<path d="M340.964 26.3152V31.434H329.191V38.1277H338.208V43.0496H329.191V49.8812H340.964V54.9999H322.497V26.3152H340.964Z" fill="black"/>
</svg>
